# Blender 4.5.3 LTS
# www.blender.org
mtllib coin.mtl
o Cylinder
v -0.162172 0.000000 -0.800666
v 0.166264 -0.000000 -0.807383
v -0.162172 -0.156202 -0.785282
v 0.166264 -0.157513 -0.791870
v -0.162172 -0.306402 -0.739719
v 0.166264 -0.308972 -0.745925
v -0.162172 -0.444826 -0.665730
v 0.166264 -0.448558 -0.671315
v -0.162172 -0.566157 -0.566157
v 0.166264 -0.570906 -0.570906
v -0.162172 -0.665730 -0.444826
v 0.166264 -0.671315 -0.448558
v -0.162172 -0.739719 -0.306402
v 0.166264 -0.745925 -0.308972
v -0.162172 -0.785282 -0.156202
v 0.166264 -0.791870 -0.157513
v -0.162172 -0.800666 0.000000
v 0.166264 -0.807383 0.000000
v -0.162172 -0.785282 0.156202
v 0.166264 -0.791870 0.157513
v -0.162172 -0.739719 0.306402
v 0.166264 -0.745925 0.308972
v -0.162172 -0.665730 0.444826
v 0.166264 -0.671315 0.448558
v -0.162172 -0.566157 0.566157
v 0.166264 -0.570906 0.570906
v -0.162172 -0.444826 0.665730
v 0.166264 -0.448558 0.671315
v -0.162172 -0.306402 0.739719
v 0.166264 -0.308972 0.745925
v -0.162172 -0.156202 0.785282
v 0.166264 -0.157513 0.791870
v -0.162172 0.000000 0.800666
v 0.166264 -0.000000 0.807383
v -0.162172 0.156202 0.785282
v 0.166264 0.157513 0.791870
v -0.162172 0.306402 0.739719
v 0.166264 0.308972 0.745925
v -0.162172 0.444826 0.665730
v 0.166264 0.448558 0.671315
v -0.162172 0.566157 0.566157
v 0.166264 0.570906 0.570906
v -0.162172 0.665730 0.444826
v 0.166264 0.671315 0.448558
v -0.162172 0.739719 0.306402
v 0.166264 0.745925 0.308972
v -0.162172 0.785282 0.156202
v 0.166264 0.791870 0.157513
v -0.162172 0.800666 0.000000
v 0.166264 0.807383 0.000000
v -0.162172 0.785282 -0.156202
v 0.166264 0.791870 -0.157513
v -0.162172 0.739719 -0.306402
v 0.166264 0.745925 -0.308972
v -0.162172 0.665730 -0.444826
v 0.166264 0.671315 -0.448558
v -0.162172 0.566157 -0.566157
v 0.166264 0.570906 -0.570906
v -0.162172 0.444826 -0.665730
v 0.166264 0.448558 -0.671315
v -0.162172 0.306402 -0.739719
v 0.166264 0.308972 -0.745925
v -0.162172 0.156202 -0.785282
v 0.166264 0.157513 -0.791870
v 0.239996 -0.195090 -0.980785
v 0.239996 -0.000000 -1.000000
v 0.239996 -0.382683 -0.923880
v 0.239996 -0.555570 -0.831470
v 0.239996 -0.707107 -0.707107
v 0.239996 -0.831470 -0.555570
v 0.239996 -0.923880 -0.382683
v 0.239996 -0.980785 -0.195090
v 0.239996 -1.000000 0.000000
v 0.239996 -0.980785 0.195090
v 0.239996 -0.923880 0.382683
v 0.239996 -0.831470 0.555570
v 0.239996 -0.707107 0.707107
v 0.239996 -0.555570 0.831470
v 0.239996 -0.382683 0.923880
v 0.239996 -0.195090 0.980785
v 0.239996 -0.000000 1.000000
v 0.239996 0.195090 0.980785
v 0.239996 0.382683 0.923880
v 0.239996 0.555570 0.831470
v 0.239996 0.707107 0.707107
v 0.239996 0.831470 0.555570
v 0.239996 0.923880 0.382683
v 0.239996 0.980785 0.195090
v 0.239996 1.000000 0.000000
v 0.239996 0.980785 -0.195090
v 0.239996 0.923880 -0.382683
v 0.239996 0.831470 -0.555570
v 0.239996 0.707107 -0.707107
v 0.239996 0.555570 -0.831470
v 0.239996 0.382683 -0.923880
v 0.239996 0.195090 -0.980785
v 0.239996 -0.159588 -0.802303
v 0.239996 -0.000000 -0.818022
v 0.239996 -0.313043 -0.755753
v 0.239996 -0.454468 -0.680160
v 0.239996 -0.578429 -0.578429
v 0.239996 -0.680160 -0.454468
v 0.239996 -0.755753 -0.313043
v 0.239996 -0.802303 -0.159588
v 0.239996 -0.818022 0.000000
v 0.239996 -0.802303 0.159588
v 0.239996 -0.755753 0.313043
v 0.239996 -0.680160 0.454468
v 0.239996 -0.578429 0.578429
v 0.239996 -0.454468 0.680160
v 0.239996 -0.313043 0.755753
v 0.239996 -0.159588 0.802303
v 0.239996 -0.000000 0.818022
v 0.239996 0.159588 0.802303
v 0.239996 0.313043 0.755753
v 0.239996 0.454468 0.680160
v 0.239996 0.578429 0.578429
v 0.239996 0.680160 0.454468
v 0.239996 0.755753 0.313043
v 0.239996 0.802303 0.159588
v 0.239996 0.818022 0.000000
v 0.239996 0.802303 -0.159588
v 0.239996 0.755753 -0.313043
v 0.239996 0.680160 -0.454468
v 0.239996 0.578429 -0.578429
v 0.239996 0.454468 -0.680160
v 0.239996 0.313043 -0.755753
v 0.239996 0.159588 -0.802303
v -0.239996 0.000000 -1.000000
v -0.239996 -0.195090 -0.980785
v -0.239996 -0.382683 -0.923880
v -0.239996 -0.555570 -0.831470
v -0.239996 -0.707107 -0.707107
v -0.239996 -0.831470 -0.555570
v -0.239996 -0.923880 -0.382683
v -0.239996 -0.980785 -0.195090
v -0.239996 -1.000000 0.000000
v -0.239996 -0.980785 0.195090
v -0.239996 -0.923880 0.382683
v -0.239996 -0.831470 0.555570
v -0.239996 -0.707107 0.707107
v -0.239996 -0.555570 0.831470
v -0.239996 -0.382683 0.923880
v -0.239996 -0.195090 0.980785
v -0.239996 0.000000 1.000000
v -0.239996 0.195090 0.980785
v -0.239996 0.382683 0.923880
v -0.239996 0.555570 0.831470
v -0.239996 0.707107 0.707107
v -0.239996 0.831470 0.555570
v -0.239996 0.923880 0.382683
v -0.239996 0.980785 0.195090
v -0.239996 1.000000 0.000000
v -0.239996 0.980785 -0.195090
v -0.239996 0.923880 -0.382683
v -0.239996 0.831470 -0.555570
v -0.239996 0.707107 -0.707107
v -0.239996 0.555570 -0.831470
v -0.239996 0.382683 -0.923880
v -0.239996 0.195090 -0.980785
v -0.239996 0.000000 -0.811410
v -0.239996 -0.158298 -0.795819
v -0.239996 -0.310513 -0.749645
v -0.239996 -0.450795 -0.674663
v -0.239996 -0.573754 -0.573754
v -0.239996 -0.674663 -0.450795
v -0.239996 -0.749645 -0.310513
v -0.239996 -0.795819 -0.158298
v -0.239996 -0.811410 0.000000
v -0.239996 -0.795819 0.158298
v -0.239996 -0.749645 0.310513
v -0.239996 -0.674663 0.450795
v -0.239996 -0.573754 0.573754
v -0.239996 -0.450795 0.674663
v -0.239996 -0.310513 0.749645
v -0.239996 -0.158298 0.795819
v -0.239996 0.000000 0.811410
v -0.239996 0.158298 0.795819
v -0.239996 0.310513 0.749645
v -0.239996 0.450795 0.674663
v -0.239996 0.573754 0.573754
v -0.239996 0.674663 0.450795
v -0.239996 0.749645 0.310513
v -0.239996 0.795819 0.158298
v -0.239996 0.811410 0.000000
v -0.239996 0.795819 -0.158298
v -0.239996 0.749645 -0.310513
v -0.239996 0.674663 -0.450795
v -0.239996 0.573754 -0.573754
v -0.239996 0.450795 -0.674663
v -0.239996 0.310513 -0.749645
v -0.239996 0.158298 -0.795819
vn -0.0000 -0.0980 -0.9952
vn -0.0000 -0.2903 -0.9569
vn -0.0000 -0.4714 -0.8819
vn -0.0000 -0.6344 -0.7730
vn -0.0000 -0.7730 -0.6344
vn -0.0000 -0.8819 -0.4714
vn -0.0000 -0.9569 -0.2903
vn -0.0000 -0.9952 -0.0980
vn -0.0000 -0.9952 0.0980
vn -0.0000 -0.9569 0.2903
vn -0.0000 -0.8819 0.4714
vn -0.0000 -0.7730 0.6344
vn -0.0000 -0.6344 0.7730
vn -0.0000 -0.4714 0.8819
vn -0.0000 -0.2903 0.9569
vn -0.0000 -0.0980 0.9952
vn -0.0000 0.0980 0.9952
vn -0.0000 0.2903 0.9569
vn -0.0000 0.4714 0.8819
vn -0.0000 0.6344 0.7730
vn -0.0000 0.7730 0.6344
vn -0.0000 0.8819 0.4714
vn -0.0000 0.9569 0.2903
vn -0.0000 0.9952 0.0980
vn -0.0000 0.9952 -0.0980
vn -0.0000 0.9569 -0.2903
vn -0.0000 0.8819 -0.4714
vn -0.0000 0.7730 -0.6344
vn -0.0000 0.6344 -0.7730
vn -0.0000 0.4714 -0.8819
vn 1.0000 -0.0000 -0.0000
vn -0.0000 0.2903 -0.9569
vn -0.0000 0.0980 -0.9952
vn -1.0000 -0.0000 -0.0000
vn 0.1421 0.0970 0.9851
vn 0.1421 0.2873 0.9472
vn 0.1421 0.4666 0.8730
vn 0.1421 0.6280 0.7652
vn 0.1421 0.7652 0.6280
vn 0.1421 0.8730 0.4666
vn 0.1421 0.9472 0.2873
vn 0.1421 0.9851 0.0970
vn 0.1421 0.9851 -0.0970
vn 0.1421 0.9472 -0.2873
vn 0.1421 0.8730 -0.4666
vn 0.1421 0.7652 -0.6280
vn 0.1421 0.6280 -0.7652
vn 0.1421 0.4666 -0.8730
vn 0.1421 0.2873 -0.9472
vn 0.1421 0.0970 -0.9851
vn 0.1421 -0.0970 -0.9851
vn 0.1421 -0.2873 -0.9472
vn 0.1421 -0.4666 -0.8730
vn 0.1421 -0.6280 -0.7652
vn 0.1421 -0.7652 -0.6280
vn 0.1421 -0.8730 -0.4666
vn 0.1421 -0.9472 -0.2873
vn 0.1421 -0.9851 -0.0970
vn 0.1421 -0.9851 0.0970
vn 0.1421 -0.9472 0.2873
vn 0.1421 -0.8730 0.4666
vn 0.1421 -0.7652 0.6280
vn 0.1421 -0.6280 0.7652
vn 0.1421 -0.4666 0.8730
vn 0.1421 -0.2873 0.9472
vn 0.1421 -0.0970 0.9851
vn -0.1361 0.0971 0.9859
vn -0.1361 0.2876 0.9480
vn -0.1361 0.4670 0.8737
vn -0.1361 0.6285 0.7658
vn -0.1361 0.7658 0.6285
vn -0.1361 0.8737 0.4670
vn -0.1361 0.9480 0.2876
vn -0.1361 0.9859 0.0971
vn -0.1361 0.9859 -0.0971
vn -0.1361 0.9480 -0.2876
vn -0.1361 0.8737 -0.4670
vn -0.1361 0.7658 -0.6285
vn -0.1361 0.6285 -0.7658
vn -0.1361 0.4670 -0.8737
vn -0.1361 0.2876 -0.9480
vn -0.1361 0.0971 -0.9859
vn -0.1361 -0.0971 -0.9859
vn -0.1361 -0.2876 -0.9480
vn -0.1361 -0.4670 -0.8737
vn -0.1361 -0.6285 -0.7658
vn -0.1361 -0.7658 -0.6285
vn -0.1361 -0.8737 -0.4670
vn -0.1361 -0.9480 -0.2876
vn -0.1361 -0.9859 -0.0971
vn -0.1361 -0.9859 0.0971
vn -0.1361 -0.9480 0.2876
vn -0.1361 -0.8737 0.4670
vn -0.1361 -0.7658 0.6285
vn -0.1361 -0.6285 0.7658
vn -0.1361 -0.4670 0.8737
vn -0.1361 -0.2876 0.9480
vn -0.1361 -0.0971 0.9859
vt 1.000000 0.500000
vt 1.000000 1.000000
vt 0.968750 1.000000
vt 0.968750 0.500000
vt 0.937500 1.000000
vt 0.937500 0.500000
vt 0.906250 1.000000
vt 0.906250 0.500000
vt 0.875000 1.000000
vt 0.875000 0.500000
vt 0.843750 1.000000
vt 0.843750 0.500000
vt 0.812500 1.000000
vt 0.812500 0.500000
vt 0.781250 1.000000
vt 0.781250 0.500000
vt 0.750000 1.000000
vt 0.750000 0.500000
vt 0.718750 1.000000
vt 0.718750 0.500000
vt 0.687500 1.000000
vt 0.687500 0.500000
vt 0.656250 1.000000
vt 0.656250 0.500000
vt 0.625000 1.000000
vt 0.625000 0.500000
vt 0.593750 1.000000
vt 0.593750 0.500000
vt 0.562500 1.000000
vt 0.562500 0.500000
vt 0.531250 1.000000
vt 0.531250 0.500000
vt 0.500000 1.000000
vt 0.500000 0.500000
vt 0.468750 1.000000
vt 0.468750 0.500000
vt 0.437500 1.000000
vt 0.437500 0.500000
vt 0.406250 1.000000
vt 0.406250 0.500000
vt 0.375000 1.000000
vt 0.375000 0.500000
vt 0.343750 1.000000
vt 0.343750 0.500000
vt 0.312500 1.000000
vt 0.312500 0.500000
vt 0.281250 1.000000
vt 0.281250 0.500000
vt 0.250000 1.000000
vt 0.250000 0.500000
vt 0.218750 1.000000
vt 0.218750 0.500000
vt 0.187500 1.000000
vt 0.187500 0.500000
vt 0.156250 1.000000
vt 0.156250 0.500000
vt 0.125000 1.000000
vt 0.125000 0.500000
vt 0.093750 1.000000
vt 0.093750 0.500000
vt 0.062500 1.000000
vt 0.062500 0.500000
vt 0.287803 0.440049
vt 0.250000 0.443772
vt 0.212197 0.440049
vt 0.175847 0.429022
vt 0.142346 0.411115
vt 0.112983 0.387017
vt 0.088884 0.357654
vt 0.070978 0.324153
vt 0.059951 0.287803
vt 0.056228 0.250000
vt 0.059951 0.212197
vt 0.070978 0.175847
vt 0.088884 0.142346
vt 0.112983 0.112983
vt 0.142346 0.088884
vt 0.175847 0.070978
vt 0.212197 0.059951
vt 0.250000 0.056228
vt 0.287803 0.059951
vt 0.324153 0.070978
vt 0.357654 0.088884
vt 0.387017 0.112983
vt 0.411115 0.142346
vt 0.429022 0.175847
vt 0.440049 0.212197
vt 0.443772 0.250000
vt 0.440049 0.287803
vt 0.429022 0.324153
vt 0.411116 0.357654
vt 0.387017 0.387017
vt 0.357654 0.411116
vt 0.324153 0.429022
vt 0.031250 1.000000
vt 0.031250 0.500000
vt 0.000000 1.000000
vt 0.000000 0.500000
vt 0.750000 0.442160
vt 0.787489 0.438468
vt 0.823536 0.427533
vt 0.856758 0.409775
vt 0.885877 0.385877
vt 0.909775 0.356758
vt 0.927532 0.323536
vt 0.938467 0.287488
vt 0.942160 0.250000
vt 0.938467 0.212511
vt 0.927532 0.176464
vt 0.909775 0.143242
vt 0.885877 0.114122
vt 0.856758 0.090225
vt 0.823536 0.072467
vt 0.787488 0.061532
vt 0.750000 0.057840
vt 0.712511 0.061532
vt 0.676464 0.072467
vt 0.643242 0.090225
vt 0.614123 0.114122
vt 0.590225 0.143242
vt 0.572468 0.176464
vt 0.561532 0.212511
vt 0.557840 0.250000
vt 0.561532 0.287489
vt 0.572467 0.323536
vt 0.590225 0.356758
vt 0.614122 0.385878
vt 0.643242 0.409775
vt 0.676464 0.427533
vt 0.712511 0.438468
vt 0.250000 0.446325
vt 0.288301 0.442553
vt 0.296822 0.485388
vt 0.250000 0.490000
vt 0.325130 0.431381
vt 0.341844 0.471731
vt 0.359072 0.413238
vt 0.383337 0.449553
vt 0.388823 0.388823
vt 0.419706 0.419706
vt 0.413238 0.359072
vt 0.449553 0.383337
vt 0.431381 0.325130
vt 0.471731 0.341844
vt 0.442553 0.288301
vt 0.485388 0.296822
vt 0.446325 0.250000
vt 0.490000 0.250000
vt 0.442553 0.211699
vt 0.485388 0.203178
vt 0.431381 0.174870
vt 0.471731 0.158156
vt 0.413238 0.140928
vt 0.449553 0.116663
vt 0.388823 0.111177
vt 0.419706 0.080294
vt 0.359072 0.086762
vt 0.383337 0.050447
vt 0.325130 0.068619
vt 0.341844 0.028269
vt 0.288301 0.057447
vt 0.296822 0.014612
vt 0.250000 0.053675
vt 0.250000 0.010000
vt 0.211699 0.057447
vt 0.203178 0.014612
vt 0.174870 0.068619
vt 0.158156 0.028269
vt 0.140928 0.086762
vt 0.116663 0.050447
vt 0.111177 0.111177
vt 0.080294 0.080294
vt 0.086762 0.140928
vt 0.050447 0.116663
vt 0.068619 0.174870
vt 0.028269 0.158156
vt 0.057447 0.211699
vt 0.014612 0.203178
vt 0.053675 0.250000
vt 0.010000 0.250000
vt 0.057447 0.288301
vt 0.014612 0.296822
vt 0.068619 0.325130
vt 0.028269 0.341844
vt 0.086762 0.359072
vt 0.050447 0.383337
vt 0.111177 0.388823
vt 0.080294 0.419706
vt 0.140928 0.413238
vt 0.116663 0.449553
vt 0.174870 0.431381
vt 0.158156 0.471731
vt 0.211699 0.442553
vt 0.203178 0.485388
vt 0.787991 0.440996
vt 0.750000 0.444738
vt 0.750000 0.490000
vt 0.796822 0.485388
vt 0.824523 0.429915
vt 0.841844 0.471731
vt 0.858191 0.411919
vt 0.883337 0.449553
vt 0.887701 0.387701
vt 0.919706 0.419706
vt 0.911919 0.358191
vt 0.949553 0.383337
vt 0.929915 0.324523
vt 0.971731 0.341844
vt 0.940996 0.287991
vt 0.985388 0.296822
vt 0.944738 0.250000
vt 0.990000 0.250000
vt 0.940996 0.212008
vt 0.985388 0.203178
vt 0.929915 0.175477
vt 0.971731 0.158156
vt 0.911919 0.141809
vt 0.949553 0.116663
vt 0.887701 0.112299
vt 0.919706 0.080294
vt 0.858191 0.088081
vt 0.883337 0.050447
vt 0.824523 0.070085
vt 0.841844 0.028269
vt 0.787991 0.059003
vt 0.796822 0.014612
vt 0.750000 0.055262
vt 0.750000 0.010000
vt 0.712008 0.059003
vt 0.703178 0.014612
vt 0.675477 0.070085
vt 0.658156 0.028269
vt 0.641809 0.088081
vt 0.616663 0.050447
vt 0.612299 0.112299
vt 0.580294 0.080294
vt 0.588081 0.141809
vt 0.550447 0.116663
vt 0.570085 0.175477
vt 0.528269 0.158156
vt 0.559003 0.212008
vt 0.514612 0.203178
vt 0.555262 0.250000
vt 0.510000 0.250000
vt 0.559003 0.287992
vt 0.514612 0.296822
vt 0.570085 0.324523
vt 0.528269 0.341844
vt 0.588081 0.358191
vt 0.550447 0.383337
vt 0.612299 0.387701
vt 0.580294 0.419706
vt 0.641809 0.411919
vt 0.616663 0.449553
vt 0.675477 0.429915
vt 0.658156 0.471731
vt 0.712008 0.440996
vt 0.703178 0.485388
s 0
f 129/1/1 66/2/1 65/3/1 130/4/1
f 130/4/2 65/3/2 67/5/2 131/6/2
f 131/6/3 67/5/3 68/7/3 132/8/3
f 132/8/4 68/7/4 69/9/4 133/10/4
f 133/10/5 69/9/5 70/11/5 134/12/5
f 134/12/6 70/11/6 71/13/6 135/14/6
f 135/14/7 71/13/7 72/15/7 136/16/7
f 136/16/8 72/15/8 73/17/8 137/18/8
f 137/18/9 73/17/9 74/19/9 138/20/9
f 138/20/10 74/19/10 75/21/10 139/22/10
f 139/22/11 75/21/11 76/23/11 140/24/11
f 140/24/12 76/23/12 77/25/12 141/26/12
f 141/26/13 77/25/13 78/27/13 142/28/13
f 142/28/14 78/27/14 79/29/14 143/30/14
f 143/30/15 79/29/15 80/31/15 144/32/15
f 144/32/16 80/31/16 81/33/16 145/34/16
f 145/34/17 81/33/17 82/35/17 146/36/17
f 146/36/18 82/35/18 83/37/18 147/38/18
f 147/38/19 83/37/19 84/39/19 148/40/19
f 148/40/20 84/39/20 85/41/20 149/42/20
f 149/42/21 85/41/21 86/43/21 150/44/21
f 150/44/22 86/43/22 87/45/22 151/46/22
f 151/46/23 87/45/23 88/47/23 152/48/23
f 152/48/24 88/47/24 89/49/24 153/50/24
f 153/50/25 89/49/25 90/51/25 154/52/25
f 154/52/26 90/51/26 91/53/26 155/54/26
f 155/54/27 91/53/27 92/55/27 156/56/27
f 156/56/28 92/55/28 93/57/28 157/58/28
f 157/58/29 93/57/29 94/59/29 158/60/29
f 158/60/30 94/59/30 95/61/30 159/62/30
f 4/63/31 2/64/31 64/65/31 62/66/31 60/67/31 58/68/31 56/69/31 54/70/31 52/71/31 50/72/31 48/73/31 46/74/31 44/75/31 42/76/31 40/77/31 38/78/31 36/79/31 34/80/31 32/81/31 30/82/31 28/83/31 26/84/31 24/85/31 22/86/31 20/87/31 18/88/31 16/89/31 14/90/31 12/91/31 10/92/31 8/93/31 6/94/31
f 159/62/32 95/61/32 96/95/32 160/96/32
f 160/96/33 96/95/33 66/97/33 129/98/33
f 1/99/34 3/100/34 5/101/34 7/102/34 9/103/34 11/104/34 13/105/34 15/106/34 17/107/34 19/108/34 21/109/34 23/110/34 25/111/34 27/112/34 29/113/34 31/114/34 33/115/34 35/116/34 37/117/34 39/118/34 41/119/34 43/120/34 45/121/34 47/122/34 49/123/34 51/124/34 53/125/34 55/126/34 57/127/34 59/128/34 61/129/34 63/130/34
f 98/131/31 97/132/31 65/133/31 66/134/31
f 97/132/31 99/135/31 67/136/31 65/133/31
f 99/135/31 100/137/31 68/138/31 67/136/31
f 100/137/31 101/139/31 69/140/31 68/138/31
f 101/139/31 102/141/31 70/142/31 69/140/31
f 102/141/31 103/143/31 71/144/31 70/142/31
f 103/143/31 104/145/31 72/146/31 71/144/31
f 104/145/31 105/147/31 73/148/31 72/146/31
f 105/147/31 106/149/31 74/150/31 73/148/31
f 106/149/31 107/151/31 75/152/31 74/150/31
f 107/151/31 108/153/31 76/154/31 75/152/31
f 108/153/31 109/155/31 77/156/31 76/154/31
f 109/155/31 110/157/31 78/158/31 77/156/31
f 110/157/31 111/159/31 79/160/31 78/158/31
f 111/159/31 112/161/31 80/162/31 79/160/31
f 112/161/31 113/163/31 81/164/31 80/162/31
f 113/163/31 114/165/31 82/166/31 81/164/31
f 114/165/31 115/167/31 83/168/31 82/166/31
f 115/167/31 116/169/31 84/170/31 83/168/31
f 116/169/31 117/171/31 85/172/31 84/170/31
f 117/171/31 118/173/31 86/174/31 85/172/31
f 118/173/31 119/175/31 87/176/31 86/174/31
f 119/175/31 120/177/31 88/178/31 87/176/31
f 120/177/31 121/179/31 89/180/31 88/178/31
f 121/179/31 122/181/31 90/182/31 89/180/31
f 122/181/31 123/183/31 91/184/31 90/182/31
f 123/183/31 124/185/31 92/186/31 91/184/31
f 124/185/31 125/187/31 93/188/31 92/186/31
f 125/187/31 126/189/31 94/190/31 93/188/31
f 126/189/31 127/191/31 95/192/31 94/190/31
f 127/191/31 128/193/31 96/194/31 95/192/31
f 128/193/31 98/131/31 66/134/31 96/194/31
f 2/64/35 4/63/35 97/132/35 98/131/35
f 4/63/36 6/94/36 99/135/36 97/132/36
f 6/94/37 8/93/37 100/137/37 99/135/37
f 8/93/38 10/92/38 101/139/38 100/137/38
f 10/92/39 12/91/39 102/141/39 101/139/39
f 12/91/40 14/90/40 103/143/40 102/141/40
f 14/90/41 16/89/41 104/145/41 103/143/41
f 16/89/42 18/88/42 105/147/42 104/145/42
f 18/88/43 20/87/43 106/149/43 105/147/43
f 20/87/44 22/86/44 107/151/44 106/149/44
f 22/86/45 24/85/45 108/153/45 107/151/45
f 24/85/46 26/84/46 109/155/46 108/153/46
f 26/84/47 28/83/47 110/157/47 109/155/47
f 28/83/48 30/82/48 111/159/48 110/157/48
f 30/82/49 32/81/49 112/161/49 111/159/49
f 32/81/50 34/80/50 113/163/50 112/161/50
f 34/80/51 36/79/51 114/165/51 113/163/51
f 36/79/52 38/78/52 115/167/52 114/165/52
f 38/78/53 40/77/53 116/169/53 115/167/53
f 40/77/54 42/76/54 117/171/54 116/169/54
f 42/76/55 44/75/55 118/173/55 117/171/55
f 44/75/56 46/74/56 119/175/56 118/173/56
f 46/74/57 48/73/57 120/177/57 119/175/57
f 48/73/58 50/72/58 121/179/58 120/177/58
f 50/72/59 52/71/59 122/181/59 121/179/59
f 52/71/60 54/70/60 123/183/60 122/181/60
f 54/70/61 56/69/61 124/185/61 123/183/61
f 56/69/62 58/68/62 125/187/62 124/185/62
f 58/68/63 60/67/63 126/189/63 125/187/63
f 60/67/64 62/66/64 127/191/64 126/189/64
f 62/66/65 64/65/65 128/193/65 127/191/65
f 64/65/66 2/64/66 98/131/66 128/193/66
f 162/195/34 161/196/34 129/197/34 130/198/34
f 163/199/34 162/195/34 130/198/34 131/200/34
f 164/201/34 163/199/34 131/200/34 132/202/34
f 165/203/34 164/201/34 132/202/34 133/204/34
f 166/205/34 165/203/34 133/204/34 134/206/34
f 167/207/34 166/205/34 134/206/34 135/208/34
f 168/209/34 167/207/34 135/208/34 136/210/34
f 169/211/34 168/209/34 136/210/34 137/212/34
f 170/213/34 169/211/34 137/212/34 138/214/34
f 171/215/34 170/213/34 138/214/34 139/216/34
f 172/217/34 171/215/34 139/216/34 140/218/34
f 173/219/34 172/217/34 140/218/34 141/220/34
f 174/221/34 173/219/34 141/220/34 142/222/34
f 175/223/34 174/221/34 142/222/34 143/224/34
f 176/225/34 175/223/34 143/224/34 144/226/34
f 177/227/34 176/225/34 144/226/34 145/228/34
f 178/229/34 177/227/34 145/228/34 146/230/34
f 179/231/34 178/229/34 146/230/34 147/232/34
f 180/233/34 179/231/34 147/232/34 148/234/34
f 181/235/34 180/233/34 148/234/34 149/236/34
f 182/237/34 181/235/34 149/236/34 150/238/34
f 183/239/34 182/237/34 150/238/34 151/240/34
f 184/241/34 183/239/34 151/240/34 152/242/34
f 185/243/34 184/241/34 152/242/34 153/244/34
f 186/245/34 185/243/34 153/244/34 154/246/34
f 187/247/34 186/245/34 154/246/34 155/248/34
f 188/249/34 187/247/34 155/248/34 156/250/34
f 189/251/34 188/249/34 156/250/34 157/252/34
f 190/253/34 189/251/34 157/252/34 158/254/34
f 191/255/34 190/253/34 158/254/34 159/256/34
f 192/257/34 191/255/34 159/256/34 160/258/34
f 161/196/34 192/257/34 160/258/34 129/197/34
f 3/100/67 1/99/67 161/196/67 162/195/67
f 5/101/68 3/100/68 162/195/68 163/199/68
f 7/102/69 5/101/69 163/199/69 164/201/69
f 9/103/70 7/102/70 164/201/70 165/203/70
f 11/104/71 9/103/71 165/203/71 166/205/71
f 13/105/72 11/104/72 166/205/72 167/207/72
f 15/106/73 13/105/73 167/207/73 168/209/73
f 17/107/74 15/106/74 168/209/74 169/211/74
f 19/108/75 17/107/75 169/211/75 170/213/75
f 21/109/76 19/108/76 170/213/76 171/215/76
f 23/110/77 21/109/77 171/215/77 172/217/77
f 25/111/78 23/110/78 172/217/78 173/219/78
f 27/112/79 25/111/79 173/219/79 174/221/79
f 29/113/80 27/112/80 174/221/80 175/223/80
f 31/114/81 29/113/81 175/223/81 176/225/81
f 33/115/82 31/114/82 176/225/82 177/227/82
f 35/116/83 33/115/83 177/227/83 178/229/83
f 37/117/84 35/116/84 178/229/84 179/231/84
f 39/118/85 37/117/85 179/231/85 180/233/85
f 41/119/86 39/118/86 180/233/86 181/235/86
f 43/120/87 41/119/87 181/235/87 182/237/87
f 45/121/88 43/120/88 182/237/88 183/239/88
f 47/122/89 45/121/89 183/239/89 184/241/89
f 49/123/90 47/122/90 184/241/90 185/243/90
f 51/124/91 49/123/91 185/243/91 186/245/91
f 53/125/92 51/124/92 186/245/92 187/247/92
f 55/126/93 53/125/93 187/247/93 188/249/93
f 57/127/94 55/126/94 188/249/94 189/251/94
f 59/128/95 57/127/95 189/251/95 190/253/95
f 61/129/96 59/128/96 190/253/96 191/255/96
f 63/130/97 61/129/97 191/255/97 192/257/97
f 1/99/98 63/130/98 192/257/98 161/196/98
